<?xml version="1.0" encoding="UTF-8" standalone="no"?>
<!-- Created with Inkscape (http://www.inkscape.org/) -->

<svg
   xmlns:dc="http://purl.org/dc/elements/1.1/"
   xmlns:cc="http://creativecommons.org/ns#"
   xmlns:rdf="http://www.w3.org/1999/02/22-rdf-syntax-ns#"
   xmlns:svg="http://www.w3.org/2000/svg"
   xmlns="http://www.w3.org/2000/svg"
   xmlns:xlink="http://www.w3.org/1999/xlink"
   xmlns:sodipodi="http://sodipodi.sourceforge.net/DTD/sodipodi-0.dtd"
   xmlns:inkscape="http://www.inkscape.org/namespaces/inkscape"
   id="svg2884"
   version="1.1"
   inkscape:version="0.47 r22583"
   width="62"
   height="62"
   sodipodi:docname="ApplicationIcon.png">
  <metadata
     id="metadata2890">
    <rdf:RDF>
      <cc:Work
         rdf:about="">
        <dc:format>image/svg+xml</dc:format>
        <dc:type
           rdf:resource="http://purl.org/dc/dcmitype/StillImage" />
        <dc:title></dc:title>
      </cc:Work>
    </rdf:RDF>
  </metadata>
  <defs
     id="defs2888">
    <inkscape:perspective
       sodipodi:type="inkscape:persp3d"
       inkscape:vp_x="0 : 0.5 : 1"
       inkscape:vp_y="0 : 1000 : 0"
       inkscape:vp_z="1 : 0.5 : 1"
       inkscape:persp3d-origin="0.5 : 0.33333333 : 1"
       id="perspective2892" />
    <inkscape:perspective
       id="perspective2904"
       inkscape:persp3d-origin="0.5 : 0.33333333 : 1"
       inkscape:vp_z="1 : 0.5 : 1"
       inkscape:vp_y="0 : 1000 : 0"
       inkscape:vp_x="0 : 0.5 : 1"
       sodipodi:type="inkscape:persp3d" />
  </defs>
  <sodipodi:namedview
     pagecolor="#ffffff"
     bordercolor="#666666"
     borderopacity="1"
     objecttolerance="10"
     gridtolerance="10"
     guidetolerance="10"
     inkscape:pageopacity="0"
     inkscape:pageshadow="2"
     inkscape:window-width="1366"
     inkscape:window-height="706"
     id="namedview2886"
     showgrid="false"
     inkscape:zoom="0.51"
     inkscape:cx="31"
     inkscape:cy="32.374859"
     inkscape:window-x="-8"
     inkscape:window-y="-8"
     inkscape:window-maximized="1"
     inkscape:current-layer="svg2884" />
  <image
     xlink:href="file:///C:/Users/joel/Documents/Visual%20Studio%202010/Projects/KhanViewer/KhanViewer/ApplicationIcon.png"
     width="62"
     height="62"
     id="image2894"
     x="0"
     y="0" />
  <rect
     style="fill:#4d4d4d;fill-opacity:1"
     id="rect2940"
     width="62"
     height="61.737289"
     x="0"
     y="0.26271185" />
  <path
     id="path2868"
     d="m 29.321553,51.920559 c -0.483785,-0.322495 -0.586922,-0.979981 -0.353373,-2.252723 0.243893,-1.329115 0.01819,-2.561462 -0.866366,-4.730741 -0.657897,-1.613384 -1.449639,-4.184408 -1.75943,-5.713387 -0.30979,-1.528979 -0.914421,-3.875089 -1.343624,-5.21358 -0.975762,-3.042965 -0.60651,-3.522792 0.891798,-1.158849 1.874684,2.957762 2.417297,2.406582 2.06127,-2.093817 -0.343805,-4.345933 0.150308,-4.537619 1.323122,-0.513281 1.096144,3.761267 1.821141,3.606822 2.205804,-0.469895 0.39155,-4.149648 0.590155,-4.862991 1.239682,-4.452593 0.273838,0.173025 0.49789,1.993632 0.49789,4.045789 0,2.052157 0.214985,3.867032 0.477749,4.033056 0.262763,0.166025 1.195616,-1.128396 2.073017,-2.876491 1.932322,-3.849888 2.394358,-2.917964 0.939987,1.895954 -0.560313,1.854633 -1.018754,3.923864 -1.018754,4.598298 0,1.687694 1.296301,2.05568 2.652617,0.753011 1.149222,-1.103761 2.291379,-1.418427 2.291379,-0.631284 0,0.243959 -0.349981,0.740511 -0.777735,1.103448 -0.427755,0.362936 -1.231846,1.584906 -1.786869,2.715486 -0.555023,1.130585 -1.527908,2.763539 -2.16196,3.628795 -0.837484,1.142857 -1.193941,2.387208 -1.303129,4.549027 l -0.150303,2.975837 -2.224798,0.13168 c -1.223639,0.07243 -2.532226,-0.07326 -2.907974,-0.32374 z m -8.44356,-7.604948 c -0.618805,-0.412424 -0.590204,-0.629979 0.200227,-1.522913 0.50719,-0.572965 1.443884,-1.041752 2.081541,-1.041752 0.907065,0 1.159372,0.274993 1.159372,1.263618 0,0.694991 -0.16686,1.266723 -0.3708,1.270518 -0.20394,0.004 -0.815759,0.120484 -1.359599,0.2593 -0.543839,0.138816 -1.313674,0.03589 -1.710741,-0.228771 z M 14.55474,40.91075 c -1.013825,-0.418232 -0.705241,-1.172704 0.703625,-1.720326 1.010765,-0.392879 1.489676,-0.341899 2.036096,0.216731 1.306698,1.335898 -0.604122,2.384585 -2.739721,1.503595 z m 3.628345,-4.75851 c -1.272338,-1.545881 -1.744909,-4.004797 -0.769667,-4.004797 1.173428,0 3.865271,1.4901 4.5822,2.536533 0.611908,0.893141 0.65193,1.323716 0.192885,2.07518 -0.860433,1.408566 -2.558315,1.151298 -4.005418,-0.606916 z m -7.675352,-0.928274 c -1.1810017,-0.785729 0.3108,-2.148653 2.150896,-1.965079 1.146097,0.114342 1.525312,0.403499 1.525312,1.16307 0,0.756988 -0.372535,1.043966 -1.483199,1.142574 -0.81576,0.07242 -1.802611,-0.08083 -2.193009,-0.340565 z m 29.46739,-1.3917 c -0.853274,-0.872336 -0.280354,-2.739884 0.992285,-3.23455 1.642089,-0.638269 4.11651,-0.133863 4.11651,0.839144 0,1.393023 -4.174652,3.350429 -5.108795,2.395406 z m 9.414447,-2.000465 c -0.860958,-0.880196 -0.305628,-1.76802 1.009144,-1.613358 0.809406,0.09521 1.359599,0.466746 1.359599,0.918105 0,0.7947 -1.764804,1.312688 -2.368743,0.695253 z M 17.841529,29.447408 c -1.361656,-0.681469 -3.146152,-4.044884 -2.731776,-5.148852 0.385731,-1.027661 1.74047,-0.927011 3.664471,0.272259 1.586029,0.9886 2.640746,2.762969 2.256801,3.796644 -0.434528,1.169853 -1.970613,1.689964 -3.189496,1.079949 z M 9.075774,28.964312 c -0.4483265,-0.552273 -0.3659645,-0.899424 0.3763321,-1.586201 1.3204819,-1.221727 2.7542359,-0.840326 2.7542359,0.732672 0,0.975438 -0.286099,1.2907 -1.27832,1.408616 -0.70307,0.08355 -1.5365837,-0.166236 -1.852248,-0.555087 z m 32.876948,-1.702863 c -1.19406,-1.220742 0.417105,-3.201166 2.604294,-3.201166 1.28929,0 1.288485,0.527313 -0.0035,2.206349 -1.004412,1.305435 -1.945136,1.665253 -2.600913,0.994817 l 8e-5,0 z M 23.125163,25.484584 c -0.967515,-1.412185 -1.013762,-3.942016 -0.09553,-5.225832 0.59674,-0.834332 0.797991,-0.868819 1.515795,-0.259785 0.962156,0.816363 2.249108,3.2099 2.238132,4.162577 -0.02368,2.056681 -2.533838,2.964455 -3.658399,1.32304 z m 25.24621,-0.02558 c -0.158771,-0.620695 -0.129097,-1.286955 0.06593,-1.480577 0.800042,-0.79424 2.8686,-0.942665 3.767033,-0.270288 0.918377,0.687302 0.91548,0.729305 -0.1236,1.791604 -1.425181,1.457023 -3.331611,1.436088 -3.709367,-0.04074 z M 35.935705,24.058256 c -0.733635,-0.828777 -0.796606,-1.237467 -0.346337,-2.24778 0.583431,-1.309109 2.097105,-2.478765 3.932554,-3.038796 1.004551,-0.306509 1.112399,-0.168365 1.112399,1.424932 0,1.1607 -0.437915,2.29641 -1.279946,3.319466 -1.496469,1.818196 -2.19155,1.928429 -3.41867,0.542178 z M 9.7625396,23.081262 C 8.6893216,21.868875 9.1919431,20.86585 10.641152,21.32791 c 1.290274,0.411389 1.810046,1.139627 1.466552,2.054755 -0.361742,0.963747 -1.336095,0.838527 -2.3451644,-0.301403 z M 30.527309,22.085136 c -0.168877,-0.279351 -0.632208,-0.380349 -1.029632,-0.224439 -1.181911,0.463677 -1.721662,-1.807698 -0.909408,-3.826991 1.186391,-2.949422 1.727783,-3.353523 2.755121,-2.056458 1.078389,1.361513 1.19753,5.167836 0.188554,6.023923 -0.453562,0.384832 -0.804996,0.414204 -1.004635,0.08396 z m -14.68352,-2.651067 c -1.809399,-1.980253 -1.674156,-3.156682 0.386516,-3.362096 1.075923,-0.10725 1.968428,0.219451 2.94458,1.077867 1.261935,1.10973 1.34229,1.362833 0.811078,2.554775 -0.800389,1.79591 -2.346263,1.694947 -4.142174,-0.270546 z m 28.427701,0.323496 c -0.398802,-1.062486 0.7067,-2.268074 2.079786,-2.268074 1.528842,0 1.816677,0.61426 0.908786,1.939417 -0.864042,1.261162 -2.568213,1.448572 -2.988572,0.328657 z M 23.923613,16.377506 c -0.856928,-0.876077 -0.769478,-3.94249 0.112437,-3.94249 0.802554,0 2.755081,2.338352 2.755081,3.299495 0,0.577995 -1.031411,1.249532 -1.919155,1.249532 -0.195293,0 -0.622059,-0.272941 -0.948363,-0.606537 z m 11.395912,-0.454488 c -1.425597,-0.541764 -1.410087,-1.837762 0.04425,-3.695898 1.475792,-1.885577 2.304169,-1.365269 2.304169,1.447268 0,2.378909 -0.569835,2.924535 -2.348398,2.24863 l -2e-5,0 z m 6.392414,-1.104079 c -0.616017,-0.758844 -0.20392,-1.562712 1.042293,-2.033183 1.117566,-0.421902 1.688064,0.887076 0.841261,1.930208 -0.748259,0.921749 -1.198885,0.946385 -1.883554,0.102975 z M 19.35323,13.671649 c -0.446478,-0.549998 -0.475163,-0.930635 -0.0991,-1.315104 0.633643,-0.647802 1.604204,-0.141626 1.604204,0.836642 0,1.080146 -0.808121,1.33704 -1.505106,0.478462 z m 8.52558,-1.84317 c -0.818271,-0.836556 -0.744373,-1.9207006 0.130927,-1.9207006 0.80601,0 1.889709,1.7082156 1.400798,2.2080576 -0.45908,0.469338 -0.866297,0.39294 -1.531725,-0.287357 z"
     style="fill:#9f9e9f"
     sodipodi:nodetypes="cssssssssssssssssssscccccsssssccssccsssccsssccssccssccsssccsssccsscccsssccsssccssssccssccssssccsssccssccsssccsscccssccssccssc" />
  <path
     id="path2866"
     d="m 20.877993,44.315611 c -0.618805,-0.412424 -0.590204,-0.629979 0.200227,-1.522913 0.50719,-0.572965 1.443884,-1.041752 2.081541,-1.041752 0.907065,0 1.159372,0.274993 1.159372,1.263618 0,0.694991 -0.16686,1.266723 -0.3708,1.270518 -0.20394,0.004 -0.815759,0.120484 -1.359599,0.2593 -0.543839,0.138816 -1.313674,0.03589 -1.710741,-0.228771 z M 14.55474,40.91075 c -1.013825,-0.418232 -0.705241,-1.172704 0.703625,-1.720326 1.010765,-0.392879 1.489676,-0.341899 2.036096,0.216731 1.306698,1.335898 -0.604122,2.384585 -2.739721,1.503595 z m 3.628345,-4.75851 c -1.272338,-1.545881 -1.744909,-4.004797 -0.769667,-4.004797 1.173428,0 3.865271,1.4901 4.5822,2.536533 0.611908,0.893141 0.65193,1.323716 0.192885,2.07518 -0.860433,1.408566 -2.558315,1.151298 -4.005418,-0.606916 z m -7.675352,-0.928274 c -1.1810017,-0.785729 0.3108,-2.148653 2.150896,-1.965079 1.146097,0.114342 1.525312,0.403499 1.525312,1.16307 0,0.756988 -0.372535,1.043966 -1.483199,1.142574 -0.81576,0.07242 -1.802611,-0.08083 -2.193009,-0.340565 z m 29.46739,-1.3917 c -0.853274,-0.872336 -0.280354,-2.739884 0.992285,-3.23455 1.642089,-0.638269 4.11651,-0.133863 4.11651,0.839144 0,1.393023 -4.174652,3.350429 -5.108795,2.395406 z m 9.414447,-2.000465 c -0.860958,-0.880196 -0.305628,-1.76802 1.009144,-1.613358 0.809406,0.09521 1.359599,0.466746 1.359599,0.918105 0,0.7947 -1.764804,1.312688 -2.368743,0.695253 z M 17.841529,29.447408 c -1.361656,-0.681469 -3.146152,-4.044884 -2.731776,-5.148852 0.385731,-1.027661 1.74047,-0.927011 3.664471,0.272259 1.586029,0.9886 2.640746,2.762969 2.256801,3.796644 -0.434528,1.169853 -1.970613,1.689964 -3.189496,1.079949 z M 9.075774,28.964312 c -0.4483265,-0.552273 -0.3659645,-0.899424 0.3763321,-1.586201 1.3204819,-1.221727 2.7542359,-0.840326 2.7542359,0.732672 0,0.975438 -0.286099,1.2907 -1.27832,1.408616 -0.70307,0.08355 -1.5365837,-0.166236 -1.852248,-0.555087 z m 32.876948,-1.702863 c -1.19406,-1.220742 0.417105,-3.201166 2.604294,-3.201166 1.28929,0 1.288485,0.527313 -0.0035,2.206349 -1.004412,1.305435 -1.945136,1.665253 -2.600913,0.994817 l 8e-5,0 z M 23.125163,25.484584 c -0.967515,-1.412185 -1.013762,-3.942016 -0.09553,-5.225832 0.59674,-0.834332 0.797991,-0.868819 1.515795,-0.259785 0.962156,0.816363 2.249108,3.2099 2.238132,4.162577 -0.02368,2.056681 -2.533838,2.964455 -3.658399,1.32304 z m 25.24621,-0.02558 c -0.158771,-0.620695 -0.129097,-1.286955 0.06593,-1.480577 0.800042,-0.79424 2.8686,-0.942665 3.767033,-0.270288 0.918377,0.687302 0.91548,0.729305 -0.1236,1.791604 -1.425181,1.457023 -3.331611,1.436088 -3.709367,-0.04074 z M 35.935705,24.058221 c -0.733635,-0.828777 -0.796606,-1.237467 -0.346337,-2.247781 0.583431,-1.309109 2.097105,-2.478765 3.932554,-3.038796 1.004551,-0.306508 1.112399,-0.168364 1.112399,1.424933 0,1.160699 -0.437915,2.296409 -1.279946,3.319466 -1.496469,1.818195 -2.19155,1.928428 -3.41867,0.542178 z M 9.7625396,23.081226 c -1.073218,-1.212386 -0.5705965,-2.215412 0.8786124,-1.753352 1.290274,0.411389 1.810046,1.139628 1.466552,2.054756 -0.361742,0.963746 -1.336095,0.838527 -2.3451644,-0.301404 z M 30.527309,22.0851 c -0.168877,-0.27935 -0.632208,-0.380349 -1.029632,-0.224438 -1.181911,0.463677 -1.721662,-1.807698 -0.909408,-3.826991 1.186391,-2.949423 1.727783,-3.353523 2.755121,-2.056459 1.078389,1.361514 1.19753,5.167837 0.188554,6.023923 -0.453562,0.384833 -0.804996,0.414205 -1.004635,0.08396 z m -14.68352,-2.651067 c -1.809399,-1.980252 -1.674156,-3.156681 0.386516,-3.362095 1.075923,-0.107251 1.968428,0.21945 2.94458,1.077867 1.261935,1.10973 1.34229,1.362833 0.811078,2.554774 -0.800389,1.795911 -2.346263,1.694948 -4.142174,-0.270546 z M 44.27149,19.75753 c -0.398802,-1.062486 0.7067,-2.268075 2.079786,-2.268075 1.528842,0 1.816677,0.614261 0.908786,1.939418 -0.864042,1.261162 -2.568213,1.448572 -2.988572,0.328657 z M 23.923613,16.377471 c -0.856928,-0.876077 -0.769478,-3.942491 0.112437,-3.942491 0.802554,0 2.755081,2.338352 2.755081,3.299496 0,0.577994 -1.031411,1.249532 -1.919155,1.249532 -0.195293,0 -0.622059,-0.272942 -0.948363,-0.606537 z m 11.395912,-0.454488 c -1.425597,-0.541764 -1.410087,-1.837762 0.04425,-3.695898 1.475792,-1.885577 2.304169,-1.365269 2.304169,1.447268 0,2.378909 -0.569835,2.924534 -2.348398,2.24863 l -2e-5,0 z m 6.392414,-1.10408 c -0.616017,-0.758843 -0.20392,-1.562712 1.042293,-2.033182 1.117566,-0.421902 1.688064,0.887075 0.841261,1.930208 -0.748259,0.921749 -1.198885,0.946384 -1.883554,0.102974 z M 19.35323,13.671613 c -0.446478,-0.549997 -0.475163,-0.930635 -0.0991,-1.315103 0.633643,-0.647802 1.604204,-0.141627 1.604204,0.836642 0,1.080146 -0.808121,1.33704 -1.505106,0.478461 z m 8.52558,-1.84317 c -0.818271,-0.836556 -0.744373,-1.9207 0.130927,-1.9207 0.80601,0 1.889709,1.708215 1.400798,2.208058 -0.45908,0.469338 -0.866297,0.392939 -1.531725,-0.287358 z"
     style="fill:#a9be57"
     sodipodi:nodetypes="csssssccssccsssccsssccssccssccsssccsssccsscccsssccsssccssssccssccssssccsssccssccsssccsscccssccssccssc" />
</svg>
