<?xml version="1.0" encoding="UTF-8" standalone="no"?>
<!-- Created with Inkscape (http://www.inkscape.org/) -->

<svg
   xmlns:dc="http://purl.org/dc/elements/1.1/"
   xmlns:cc="http://creativecommons.org/ns#"
   xmlns:rdf="http://www.w3.org/1999/02/22-rdf-syntax-ns#"
   xmlns:svg="http://www.w3.org/2000/svg"
   xmlns="http://www.w3.org/2000/svg"
   xmlns:xlink="http://www.w3.org/1999/xlink"
   xmlns:sodipodi="http://sodipodi.sourceforge.net/DTD/sodipodi-0.dtd"
   xmlns:inkscape="http://www.inkscape.org/namespaces/inkscape"
   id="svg2828"
   version="1.1"
   inkscape:version="0.48.0 r9654"
   width="480"
   height="800"
   sodipodi:docname="splashscreen_inkscape.svg">
  <metadata
     id="metadata2834">
    <rdf:RDF>
      <cc:Work
         rdf:about="">
        <dc:format>image/svg+xml</dc:format>
        <dc:type
           rdf:resource="http://purl.org/dc/dcmitype/StillImage" />
        <dc:title></dc:title>
      </cc:Work>
    </rdf:RDF>
  </metadata>
  <defs
     id="defs2832">
    <inkscape:perspective
       sodipodi:type="inkscape:persp3d"
       inkscape:vp_x="0 : 0.5 : 1"
       inkscape:vp_y="0 : 1000 : 0"
       inkscape:vp_z="1 : 0.5 : 1"
       inkscape:persp3d-origin="0.5 : 0.33333333 : 1"
       id="perspective2836" />
    <inkscape:perspective
       id="perspective2848"
       inkscape:persp3d-origin="0.5 : 0.33333333 : 1"
       inkscape:vp_z="1 : 0.5 : 1"
       inkscape:vp_y="0 : 1000 : 0"
       inkscape:vp_x="0 : 0.5 : 1"
       sodipodi:type="inkscape:persp3d" />
  </defs>
  <sodipodi:namedview
     pagecolor="#ffffff"
     bordercolor="#666666"
     borderopacity="1"
     objecttolerance="10"
     gridtolerance="10"
     guidetolerance="10"
     inkscape:pageopacity="0"
     inkscape:pageshadow="2"
     inkscape:window-width="1920"
     inkscape:window-height="1018"
     id="namedview2830"
     showgrid="false"
     inkscape:zoom="0.46"
     inkscape:cx="240"
     inkscape:cy="322.44544"
     inkscape:window-x="-8"
     inkscape:window-y="-8"
     inkscape:window-maximized="1"
     inkscape:current-layer="svg2828" />
  <image
     xlink:href="file:///C:/Users/joel/Documents/Visual%20Studio%202010/Projects/KhanViewer/KhanViewer/SplashScreenImage.jpg"
     width="480"
     height="800"
     id="image2838"
     x="0"
     y="0" />
  <g
     id="g2879"
     transform="matrix(2.0695807,0,0,2.2853224,788.55418,-797.45154)">
    <path
       sodipodi:nodetypes="cssssssscccscccssssssssssccsssccssccsssccsssccssccssssccssccsssccssccsssccsssccsssccssccsssccssssccsssccsssssssscccssccssccsssc"
       style="fill:#cfd9a4"
       d="m -269.04466,573.76095 c -0.80397,-0.32441 -1.25,-2.63331 -1.25,-6.4707 0,-3.33931 -0.65842,-7.23957 -1.49536,-8.85803 -0.82244,-1.59044 -2.3701,-6.63059 -3.43925,-11.20034 -1.06914,-4.56975 -2.62838,-9.93898 -3.46499,-11.93162 -2.4238,-5.77307 0.83648,-7.01113 4.28455,-1.62702 2.33542,3.64672 2.32998,3.65978 2.12175,-5.08721 -0.13319,-5.59521 0.0588,-6.29682 1.63992,-5.99233 1.17235,0.22577 2.29518,2.06897 3.25132,5.33721 l 1.46053,4.99233 1.15542,-6.75132 c 1.27522,-7.45139 1.70188,-8.2636 3.89819,-7.42079 1.10091,0.42246 1.57653,2.51088 1.79313,7.87354 l 0.29479,7.29857 2.76685,-5.25 c 2.81844,-5.34791 5.73315,-6.95631 5.73315,-3.16368 0,1.14747 -0.96022,5.391 -2.13382,9.43007 -1.1736,4.03907 -1.84982,8.08385 -1.50271,8.9884 0.5659,1.47473 0.9036,1.43029 3.26867,-0.43008 2.95841,-2.32707 7.36786,-2.77535 7.36786,-0.74902 0,0.72912 -1.16879,2.41662 -2.59732,3.75 -1.42852,1.33337 -3.51538,4.22431 -4.63745,6.42431 -1.12207,2.2 -2.87827,5.07319 -3.90268,6.38486 -1.32498,1.69654 -1.86255,4.04678 -1.86255,8.14301 0,4.32819 -0.39282,5.90889 -1.58179,6.36514 -1.85425,0.71155 -9.35988,0.67439 -11.16821,-0.0553 z m -18.22936,-15.81283 c -1.00254,-1.20799 -0.67645,-2.02291 1.80064,-4.5 3.18582,-3.18582 5.97894,-3.82466 7.97872,-1.82488 1.83712,1.83712 1.42786,5.60769 -0.73426,6.76482 -2.80789,1.50273 -7.62736,1.26832 -9.0451,-0.43994 z m -10.77064,-5.74538 c -2.76078,-1.33147 -2.92653,-4.34706 -0.31574,-5.74432 5.52998,-2.95955 11.10409,0.92647 7.08866,4.9419 -2.25053,2.25053 -3.4706,2.39508 -6.77292,0.80242 z m 7.89348,-8.31223 c -3.09019,-2.60022 -5.77788,-8.63177 -4.65556,-10.44772 0.83722,-1.35465 5.1045,-1.29719 7.82782,0.10541 6.34507,3.26792 8.39874,8.01348 4.85552,11.22005 -2.53274,2.2921 -4.51871,2.07495 -8.02778,-0.87774 z m -15.83514,-2.66173 c -3.29947,-1.59445 -3.50733,-3.50386 -0.62798,-5.76875 3.09563,-2.43502 6.59253,-2.62104 8.74821,-0.46536 2.05847,2.05846 1.98277,3.01723 -0.42857,5.42857 -2.19658,2.19658 -4.34704,2.4218 -7.69166,0.80554 z m 57.89166,-4.00554 c -3.5748,-3.5748 0.48149,-8.8 6.83138,-8.8 5.06379,0 7.57628,1.99605 6.06559,4.81881 -2.24473,4.19431 -10.22149,6.65667 -12.89697,3.98119 z m 20.59699,-2.48028 c -2.39267,-0.6298 -3.32526,-4.22002 -1.55583,-5.98945 1.69246,-1.69246 6.0073,-0.94075 7.93539,1.38246 1.0426,1.25626 0.85902,1.84005 -1.06977,3.40189 -1.28059,1.03696 -2.616,1.83318 -2.96756,1.76938 -0.35157,-0.0638 -1.40558,-0.31773 -2.34223,-0.56428 z m -65.68012,-5.95041 c -4.65762,-3.26233 -6.79766,-12.70107 -3.14272,-13.86111 2.54306,-0.80713 8.52055,2.03396 11.05305,5.25351 5.12892,6.52037 -1.14438,13.34665 -7.91033,8.6076 z m -16.96526,-0.25445 c -1.96806,-1.24722 -1.04791,-4.10731 2.0695,-6.43256 2.28376,-1.70344 3.12756,-1.84447 5.25,-0.87742 2.74172,1.24922 3.43348,4.89053 1.32889,6.99512 -1.38187,1.38187 -6.66139,1.57408 -8.64839,0.31486 z m 66.41982,-3.68629 c -2.79017,-2.79017 -1.31651,-6.46309 3.37239,-8.4053 6.25159,-2.58949 8.25836,1.9284 3.1331,7.05365 -3.34349,3.3435 -4.31235,3.5448 -6.50549,1.35165 z m -36.47443,-2.17857 c -4.06303,-3.34669 -4.39682,-12.09643 -0.58224,-15.26225 2.98038,-2.47349 8.48524,4.97901 8.48524,11.48734 0,2.91676 -0.47195,3.75385 -2.5651,4.54966 -3.22686,1.22685 -2.83964,1.28305 -5.3379,-0.77475 z m 49.4597,-0.47251 c -2.14945,-3.06878 -1.95614,-4.46966 0.87253,-6.32307 3.05092,-1.99905 8.51746,-1.53157 9.96992,0.85258 0.91263,1.49804 0.54247,2.31019 -2.16493,4.75 -3.89888,3.51353 -6.56608,3.73499 -8.67752,0.72049 z m -24.90171,-2.60623 c -2.38222,-2.63233 -2.09346,-7.42326 0.59501,-9.87198 4.77251,-4.34692 10.28936,-5.66327 11.41718,-2.72421 1.03489,2.69689 -1.56127,9.15803 -4.76197,11.85123 -3.62781,3.05261 -5.03132,3.19682 -7.25022,0.74496 z m -53.56446,-3.5749 c -2.91399,-3.1018 -2.16203,-5.59636 1.68696,-5.59636 3.97538,0 6.48586,2.09198 6.06748,5.05603 -0.49553,3.51059 -4.68948,3.80283 -7.75444,0.54033 z m 38.30986,-3.10804 c -1.09456,-1.67051 -1.43992,-3.54066 -1.03122,-5.58416 0.82737,-4.13688 4.34902,-8.90416 6.5776,-8.90416 3.67214,0 6.10162,11.82692 3.15806,15.37369 -2.10356,2.53464 -6.77489,2.05949 -8.70444,-0.88537 z m -22.96325,-1.36355 c -3.29453,-2.00904 -6.57417,-7.60411 -5.73662,-9.78671 0.32282,-0.84127 2.17305,-1.33806 4.98339,-1.33806 3.60712,0 5.03417,0.56423 7.39301,2.92308 3.45767,3.45766 3.62457,4.94683 0.88413,7.88836 -2.48585,2.66824 -3.58698,2.7141 -7.52391,0.31333 z m 55.08605,-1.09915 c -1.64239,-1.81482 -1.65985,-2.16811 -0.21596,-4.37177 2.52665,-3.85615 9.69277,-4.25174 9.69277,-0.53507 0,2.26199 -4.22877,6.88122 -6.29956,6.88122 -0.76475,0 -2.19452,-0.88847 -3.17725,-1.97438 z m -41.45061,-7.66048 c -1.13992,-1.44917 -2.07258,-3.25955 -2.07258,-4.02305 0,-1.13509 -0.43527,-1.10299 -2.38736,0.17606 -2.17205,1.42318 -2.53281,1.41882 -4,-0.0484 -2.05367,-2.05366 -2.0865,-6.07396 -0.056,-6.85315 0.93329,-0.35814 2.45576,0.37277 3.80181,1.82518 2.18091,2.35324 2.27965,2.36727 3.45179,0.49037 1.58188,-2.53299 2.43059,-2.44182 6.11299,0.65672 2.04245,1.71861 3.07673,3.50027 3.07673,5.3 0,5.41125 -4.51049,6.82017 -7.92742,2.47625 l 4e-5,2e-5 z m 22.49885,0.0634 c -2.16908,-2.16907 -1.96587,-6.06589 0.49666,-9.5242 2.6405,-3.70824 5.64894,-3.77883 7.023,-0.16478 2.67035,7.02353 -2.94711,14.26154 -7.51966,9.68898 z m 12.44084,-3.40565 c -1.36149,-2.54397 1.82646,-6.02292 5.51912,-6.02292 3.25544,0 4.12959,2.34227 2.05551,5.50772 -1.99935,3.05139 -6.06916,3.32821 -7.57463,0.5152 z m -26.44084,-4.59435 c -1.56977,-1.56976 -2.09165,-4.57502 -0.98642,-5.68025 0.32176,-0.32176 1.89676,-0.12773 3.5,0.43116 3.05373,1.06454 3.8059,3.52961 1.71499,5.62052 -1.58146,1.58146 -2.34254,1.5146 -4.22857,-0.37143 z"
       id="path2870" />
    <path
       sodipodi:nodetypes="cssssssssssssssssssscccccsssssccssccsssccsssccssccssccsssccsssccsscccsssccsssccssssccssccssssccsssccssccsssccsscccssccssccssc"
       style="fill:#9f9e9f"
       d="m -268.17649,572.54326 c -0.97853,-0.63804 -1.18714,-1.93884 -0.71475,-4.45689 0.49331,-2.62958 0.0368,-5.06771 -1.75236,-9.35951 -1.3307,-3.19199 -2.93212,-8.27862 -3.55872,-11.30362 -0.6266,-3.025 -1.84956,-7.66665 -2.71769,-10.31478 -1.97363,-6.02034 -1.22676,-6.96965 1.8038,-2.29272 3.79184,5.85177 4.88936,4.76129 4.16924,-4.1425 -0.6954,-8.59819 0.30402,-8.97743 2.67622,-1.0155 2.21712,7.44146 3.68354,7.1359 4.46158,-0.92966 0.79197,-8.20985 1.19368,-9.62116 2.50745,-8.80921 0.55388,0.34232 1.00706,3.94429 1.00706,8.00437 0,4.06008 0.43484,7.65071 0.96632,7.97918 0.53148,0.32847 2.41832,-2.23247 4.193,-5.69098 3.90842,-7.61679 4.84296,-5.77303 1.90127,3.75104 -1.13332,3.66929 -2.06059,7.76315 -2.06059,9.09748 0,3.33901 2.62197,4.06705 5.36533,1.48979 2.32448,-2.18373 4.63467,-2.80628 4.63467,-1.24896 0,0.48266 -0.70789,1.46506 -1.57309,2.18311 -0.8652,0.71805 -2.4916,3.13565 -3.61422,5.37244 -1.12262,2.2368 -3.09043,5.46751 -4.3729,7.17937 -1.69394,2.26108 -2.41493,4.72296 -2.63578,9 l -0.30401,5.88753 -4.5,0.26052 c -2.475,0.14329 -5.12182,-0.14494 -5.88183,-0.6405 z m -17.07841,-15.04597 c -1.25163,-0.81596 -1.19378,-1.24638 0.40499,-3.013 1.02587,-1.13358 2.92048,-2.06105 4.21024,-2.06105 1.83468,0 2.34501,0.54406 2.34501,2.5 0,1.375 -0.3375,2.50614 -0.75,2.51365 -0.4125,0.008 -1.65,0.23837 -2.75,0.51301 -1.1,0.27464 -2.65711,0.071 -3.46024,-0.45261 z m -12.78976,-6.73633 c -2.05062,-0.82745 -1.42646,-2.32013 1.42319,-3.40357 2.04443,-0.77729 3.0131,-0.67643 4.11832,0.42879 2.643,2.643 -1.22193,4.71777 -5.54151,2.97478 z m 7.33889,-9.41445 c -2.5735,-3.05844 -3.52935,-7.92327 -1.55677,-7.92327 2.37344,0 7.81811,2.94808 9.26821,5.01839 1.23768,1.76703 1.31863,2.6189 0.39014,4.10563 -1.74036,2.78677 -5.17459,2.27778 -8.10158,-1.20075 z m -15.52459,-1.83654 c -2.38876,-1.55452 0.62864,-4.25099 4.35052,-3.8878 2.31816,0.22622 3.08518,0.7983 3.08518,2.30107 0,1.49766 -0.75351,2.06543 -3,2.26052 -1.65,0.14328 -3.64606,-0.15992 -4.4357,-0.67379 z m 59.60237,-2.7534 c -1.72588,-1.72587 -0.56706,-5.42071 2.00705,-6.39938 3.32138,-1.26278 8.32628,-0.26484 8.32628,1.6602 0,2.75602 -8.44388,6.62864 -10.33333,4.73918 z m 19.04218,-3.95781 c -1.74142,-1.74142 -0.61818,-3.49793 2.04115,-3.19194 1.63715,0.18837 2.75,0.92343 2.75,1.81642 0,1.57227 -3.56959,2.59708 -4.79115,1.37552 z m -63.81081,-4.71739 c -2.75416,-1.34825 -6.36358,-8.00258 -5.52544,-10.18672 0.7802,-2.03317 3.52037,-1.83404 7.41196,0.53865 3.20799,1.95589 5.34132,5.46638 4.56473,7.51145 -0.8789,2.31449 -3.98587,3.3435 -6.45125,2.13662 z m -17.7301,-0.95578 c -0.90681,-1.09264 -0.74022,-1.77946 0.76119,-3.13821 2.67088,-2.41712 5.57087,-1.66254 5.57087,1.44955 0,1.92985 -0.57868,2.55358 -2.5856,2.78687 -1.42207,0.1653 -3.10798,-0.32889 -3.74646,-1.09821 z m 66.49873,-3.36902 c -2.41517,-2.41517 0.84366,-6.33333 5.26759,-6.33333 2.60779,0 2.60616,1.04326 -0.007,4.36514 -2.03158,2.58273 -3.93434,3.29461 -5.26075,1.96819 l 1.6e-4,0 z m -38.08166,-3.51543 c -1.95695,-2.79393 -2.05049,-7.79906 -0.19322,-10.33902 1.207,-1.65068 1.61406,-1.71891 3.06593,-0.51397 1.94611,1.61513 4.54917,6.35061 4.52697,8.23543 -0.0479,4.06903 -5.12508,5.86501 -7.39968,2.61756 z m 51.06438,-0.0506 c -0.32114,-1.22801 -0.26112,-2.54617 0.13336,-2.92924 1.61821,-1.57136 5.80219,-1.86501 7.61941,-0.53475 1.85756,1.35979 1.8517,1.44289 -0.25,3.54459 -2.88265,2.88264 -6.7387,2.84122 -7.50277,-0.0806 z m -25.15307,-2.77131 c -1.48389,-1.63969 -1.61126,-2.44826 -0.70052,-4.44711 1.18008,-2.59 4.24172,-4.9041 7.9542,-6.01209 2.03186,-0.60641 2.25,-0.3331 2.25,2.81915 0,2.29638 -0.88575,4.54332 -2.58889,6.56738 -3.02684,3.5972 -4.43275,3.81529 -6.91479,1.07267 z m -52.93929,-1.93293 c -2.17075,-2.39864 -1.15412,-4.38307 1.77713,-3.46891 2.60978,0.81391 3.6611,2.25469 2.96633,4.06522 -0.73168,1.90672 -2.70246,1.65898 -4.74346,-0.59631 z m 41.99997,-1.97078 c -0.34158,-0.55268 -1.27874,-0.7525 -2.08259,-0.44404 -2.3906,0.91736 -3.48233,-3.57643 -1.83942,-7.57149 2.39966,-5.83527 3.49471,-6.63476 5.57266,-4.06859 2.18121,2.69368 2.42219,10.22428 0.38138,11.918 -0.9174,0.76137 -1.62823,0.81948 -2.03203,0.16612 z m -29.6997,-5.24499 c -3.65979,-3.91782 -3.38624,-6.24532 0.78179,-6.65172 2.17622,-0.21219 3.98145,0.43417 5.95587,2.1325 2.55246,2.19554 2.71499,2.69629 1.64053,5.05448 -1.61891,3.55311 -4.74568,3.35336 -8.37819,-0.53526 z m 57.49944,0.64002 c -0.80664,-2.10207 1.42941,-4.48726 4.20669,-4.48726 3.09232,0 3.67451,1.21528 1.83816,3.83703 -1.74766,2.49514 -5.19461,2.86592 -6.04485,0.65023 z m -41.15674,-6.68726 c -1.73327,-1.73327 -1.55639,-7.8 0.22742,-7.8 1.62329,0 5.57258,4.6263 5.57258,6.52787 0,1.14353 -2.08619,2.47213 -3.88179,2.47213 -0.39501,0 -1.25821,-0.54 -1.91821,-1.2 z m 23.05,-0.89918 c -2.88349,-1.07185 -2.85212,-3.63591 0.0895,-7.31213 2.98502,-3.73051 4.66054,-2.70111 4.66054,2.86334 0,4.70654 -1.15258,5.78603 -4.75,4.44879 l -4e-5,0 z m 12.92965,-2.18436 c -1.24599,-1.50133 -0.41246,-3.09174 2.1082,-4.02254 2.26045,-0.83471 3.41437,1.75503 1.70158,3.81881 -1.51347,1.82363 -2.42493,1.87237 -3.80978,0.20373 z m -45.22396,-2.26985 c -0.90307,-1.08814 -0.96109,-1.84121 -0.20044,-2.60186 1.28164,-1.28164 3.24475,-0.2802 3.24475,1.65525 0,2.13701 -1.63455,2.64526 -3.04431,0.94661 z m 17.24431,-3.64661 c -1.65508,-1.65508 -1.50561,-3.8 0.26482,-3.8 1.63028,0 3.82223,3.37961 2.83333,4.36852 -0.92856,0.92856 -1.75222,0.77741 -3.09815,-0.56852 z"
       id="path2868" />
    <path
       sodipodi:nodetypes="csssssccssccsssccsssccssccssccsssccsssccsscccsssccsssccssssccssccssssccsssccssccsssccsscccssccssccssc"
       style="fill:#a9be57"
       d="m -285.2549,557.49729 c -1.25163,-0.81596 -1.19378,-1.24638 0.40499,-3.013 1.02587,-1.13358 2.92048,-2.06105 4.21024,-2.06105 1.83468,0 2.34501,0.54406 2.34501,2.5 0,1.375 -0.3375,2.50614 -0.75,2.51365 -0.4125,0.008 -1.65,0.23837 -2.75,0.51301 -1.1,0.27464 -2.65711,0.071 -3.46024,-0.45261 z m -12.78976,-6.73633 c -2.05062,-0.82745 -1.42646,-2.32013 1.42319,-3.40357 2.04443,-0.77729 3.0131,-0.67643 4.11832,0.42879 2.643,2.643 -1.22193,4.71777 -5.54151,2.97478 z m 7.33889,-9.41445 c -2.5735,-3.05844 -3.52935,-7.92327 -1.55677,-7.92327 2.37344,0 7.81811,2.94808 9.26821,5.01839 1.23768,1.76703 1.31863,2.6189 0.39014,4.10563 -1.74036,2.78677 -5.17459,2.27778 -8.10158,-1.20075 z m -15.52459,-1.83654 c -2.38876,-1.55452 0.62864,-4.25099 4.35052,-3.8878 2.31816,0.22622 3.08518,0.7983 3.08518,2.30107 0,1.49766 -0.75351,2.06543 -3,2.26052 -1.65,0.14328 -3.64606,-0.15992 -4.4357,-0.67379 z m 59.60237,-2.7534 c -1.72588,-1.72587 -0.56706,-5.42071 2.00705,-6.39938 3.32138,-1.26278 8.32628,-0.26484 8.32628,1.6602 0,2.75602 -8.44388,6.62864 -10.33333,4.73918 z m 19.04218,-3.95781 c -1.74142,-1.74142 -0.61818,-3.49793 2.04115,-3.19194 1.63715,0.18837 2.75,0.92343 2.75,1.81642 0,1.57227 -3.56959,2.59708 -4.79115,1.37552 z m -63.81081,-4.71739 c -2.75416,-1.34825 -6.36358,-8.00258 -5.52544,-10.18672 0.7802,-2.03317 3.52037,-1.83404 7.41196,0.53865 3.20799,1.95589 5.34132,5.46638 4.56473,7.51145 -0.8789,2.31449 -3.98587,3.3435 -6.45125,2.13662 z m -17.7301,-0.95578 c -0.90681,-1.09264 -0.74022,-1.77946 0.76119,-3.13821 2.67088,-2.41712 5.57087,-1.66254 5.57087,1.44955 0,1.92985 -0.57868,2.55358 -2.5856,2.78687 -1.42207,0.1653 -3.10798,-0.32889 -3.74646,-1.09821 z m 66.49873,-3.36902 c -2.41517,-2.41517 0.84366,-6.33333 5.26759,-6.33333 2.60779,0 2.60616,1.04326 -0.007,4.36514 -2.03158,2.58273 -3.93434,3.29461 -5.26075,1.96819 l 1.6e-4,0 z m -38.08166,-3.51543 c -1.95695,-2.79393 -2.05049,-7.79906 -0.19322,-10.33902 1.207,-1.65068 1.61406,-1.71891 3.06593,-0.51397 1.94611,1.61513 4.54917,6.35061 4.52697,8.23543 -0.0479,4.06903 -5.12508,5.86501 -7.39968,2.61756 z m 51.06438,-0.0506 c -0.32114,-1.22801 -0.26112,-2.54617 0.13336,-2.92924 1.61821,-1.57136 5.80219,-1.86501 7.61941,-0.53475 1.85756,1.35979 1.8517,1.44289 -0.25,3.54459 -2.88265,2.88264 -6.7387,2.84122 -7.50277,-0.0806 z m -25.15307,-2.77138 c -1.48389,-1.63969 -1.61126,-2.44826 -0.70052,-4.44711 1.18008,-2.59 4.24172,-4.9041 7.9542,-6.01209 2.03186,-0.60641 2.25,-0.3331 2.25,2.81915 0,2.29638 -0.88575,4.54332 -2.58889,6.56738 -3.02684,3.5972 -4.43275,3.81529 -6.91479,1.07267 z m -52.93929,-1.93293 c -2.17075,-2.39864 -1.15412,-4.38307 1.77713,-3.46891 2.60978,0.81391 3.6611,2.25469 2.96633,4.06522 -0.73168,1.90672 -2.70246,1.65898 -4.74346,-0.59631 z m 41.99997,-1.97078 c -0.34158,-0.55268 -1.27874,-0.7525 -2.08259,-0.44404 -2.3906,0.91736 -3.48233,-3.57643 -1.83942,-7.57149 2.39966,-5.83527 3.49471,-6.63476 5.57266,-4.06859 2.18121,2.69368 2.42219,10.22428 0.38138,11.918 -0.9174,0.76137 -1.62823,0.81948 -2.03203,0.16612 z m -29.6997,-5.24499 c -3.65979,-3.91782 -3.38624,-6.24532 0.78179,-6.65172 2.17622,-0.21219 3.98145,0.43417 5.95587,2.1325 2.55246,2.19554 2.71499,2.69629 1.64053,5.05448 -1.61891,3.55311 -4.74568,3.35336 -8.37819,-0.53526 z m 57.49944,0.64002 c -0.80664,-2.10207 1.42941,-4.48726 4.20669,-4.48726 3.09232,0 3.67451,1.21528 1.83816,3.83703 -1.74766,2.49514 -5.19461,2.86592 -6.04485,0.65023 z m -41.15674,-6.68726 c -1.73327,-1.73327 -1.55639,-7.8 0.22742,-7.8 1.62329,0 5.57258,4.6263 5.57258,6.52787 0,1.14353 -2.08619,2.47213 -3.88179,2.47213 -0.39501,0 -1.25821,-0.54 -1.91821,-1.2 z m 23.05,-0.89918 c -2.88349,-1.07185 -2.85212,-3.63591 0.0895,-7.31213 2.98502,-3.73051 4.66054,-2.70111 4.66054,2.86334 0,4.70654 -1.15258,5.78603 -4.75,4.44879 l -4e-5,0 z m 12.92965,-2.18436 c -1.24599,-1.50133 -0.41246,-3.09174 2.1082,-4.02254 2.26045,-0.83471 3.41437,1.75503 1.70158,3.81881 -1.51347,1.82363 -2.42493,1.87237 -3.80978,0.20373 z m -45.22396,-2.26985 c -0.90307,-1.08814 -0.96109,-1.84121 -0.20044,-2.60186 1.28164,-1.28164 3.24475,-0.2802 3.24475,1.65525 0,2.13701 -1.63455,2.64526 -3.04431,0.94661 z m 17.24431,-3.64661 c -1.65508,-1.65508 -1.50561,-3.8 0.26482,-3.8 1.63028,0 3.82223,3.37961 2.83333,4.36852 -0.92856,0.92856 -1.75222,0.77741 -3.09815,-0.56852 z"
       id="path2866" />
  </g>
</svg>
